<?xml version="1.0" encoding="UTF-8" standalone="no"?>
<!-- Created with Inkscape (http://www.inkscape.org/) -->

<svg
   width="503.21201mm"
   height="299.23822mm"
   viewBox="0 0 503.212 299.23823"
   version="1.1"
   id="svg1"
   inkscape:version="1.3.2 (091e20e, 2023-11-25)"
   sodipodi:docname="logo xg3.svg"
   xmlns:inkscape="http://www.inkscape.org/namespaces/inkscape"
   xmlns:sodipodi="http://sodipodi.sourceforge.net/DTD/sodipodi-0.dtd"
   xmlns="http://www.w3.org/2000/svg"
   xmlns:svg="http://www.w3.org/2000/svg">
  <sodipodi:namedview
     id="namedview1"
     pagecolor="#141414"
     bordercolor="#000000"
     borderopacity="0.25"
     inkscape:showpageshadow="2"
     inkscape:pageopacity="0.0"
     inkscape:pagecheckerboard="0"
     inkscape:deskcolor="#d1d1d1"
     inkscape:document-units="mm"
     showgrid="false"
     showguides="true"
     inkscape:zoom="0.25"
     inkscape:cx="-260"
     inkscape:cy="1226"
     inkscape:window-width="1920"
     inkscape:window-height="976"
     inkscape:window-x="0"
     inkscape:window-y="25"
     inkscape:window-maximized="0"
     inkscape:current-layer="layer1"
     inkscape:lockguides="false">
    <inkscape:grid
       id="grid1"
       units="mm"
       originx="-65.839209"
       originy="-168.96059"
       spacingx="4"
       spacingy="4"
       empcolor="#c80000"
       empopacity="0.30196078"
       color="#0099e5"
       opacity="0.14901961"
       empspacing="4"
       dotted="false"
       gridanglex="30"
       gridanglez="30"
       visible="false" />
    <inkscape:grid
       type="axonomgrid"
       id="grid8"
       units="mm"
       originx="-65.839209"
       originy="-152.96059"
       spacingx="0"
       spacingy="3.9999999"
       empcolor="#e50000"
       empopacity="0.30196078"
       color="#0099e5"
       opacity="0.14901961"
       empspacing="4"
       dotted="false"
       gridanglex="45"
       gridanglez="45"
       visible="false"
       snapvisiblegridlinesonly="true" />
    <sodipodi:guide
       position="251.60498,300.69398"
       orientation="1,0"
       id="guide1"
       inkscape:locked="false" />
    <sodipodi:guide
       position="0.00069774793,301.29963"
       orientation="1,0"
       id="guide2"
       inkscape:locked="false" />
    <sodipodi:guide
       position="503.21133,300.71879"
       orientation="1,0"
       id="guide3"
       inkscape:locked="false" />
    <sodipodi:guide
       position="278.8798,599.99872"
       orientation="0,-1"
       id="guide5"
       inkscape:locked="false" />
    <sodipodi:guide
       position="46.796808,355.98157"
       orientation="0,-1"
       id="guide6"
       inkscape:locked="false" />
    <sodipodi:guide
       position="166.34404,300.87589"
       orientation="0,-1"
       id="guide7"
       inkscape:locked="false" />
    <sodipodi:guide
       position="154.16907,383.54164"
       orientation="0,-1"
       id="guide10"
       inkscape:locked="false" />
    <sodipodi:guide
       position="59.961895,328.43286"
       orientation="0,-1"
       id="guide8"
       inkscape:locked="false" />
    <sodipodi:guide
       position="137.69772,411.09138"
       orientation="0,-1"
       id="guide9"
       inkscape:locked="false" />
  </sodipodi:namedview>
  <defs
     id="defs1" />
  <g
     inkscape:label="Layer 1"
     inkscape:groupmode="layer"
     id="layer1"
     transform="translate(-65.839211,-168.96059)">
    <path
       style="fill:#00ccfa;fill-opacity:1;stroke-width:0.195232"
       d="m 360.04379,285.74504 -21.94013,21.94287 25.13698,25.13875 6.36774,-3.9e-4 z"
       id="path17" />
    <path
       style="fill:#00ccfa;fill-opacity:1;stroke-width:0.195232"
       d="m 273.17165,284.07561 -25.13735,25.13836 3.8e-4,6.3681 47.07865,-9.56512 z"
       id="path16" />
    <path
       style="fill:#f9f9f9;fill-opacity:1;stroke-width:0.195232"
       d="m 379.42388,266.36543 -16.42461,16.42436 11.5264,54.21275 -13.40012,0.003 -25.97394,-26.36433 -14.75717,14.7576 32.07707,32.4693 47.2224,-7.4e-4 z"
       id="path15" />
    <path
       style="fill:#f9f9f9;fill-opacity:1;stroke-width:0.195232"
       d="m 255.46244,266.36543 -32.4675,32.07882 7.3e-4,47.22499 91.4962,-20.27115 -16.42347,-16.4255 -54.20976,11.52703 -0.003,-13.40085 26.36286,-25.97537 z"
       id="path14" />
    <path
       style="fill:#00ccfa;fill-opacity:1;stroke-width:0.195232"
       d="m 386.85242,211.24514 -47.07866,9.56512 21.94168,21.94135 25.13736,-25.13836 z"
       id="path13" />
    <path
       style="fill:#f9f9f9;fill-opacity:1;stroke-width:0.195232"
       d="m 317.44278,204.38056 -59.02905,59.03229 59.02942,59.03266 59.02945,-59.03266 -11.80512,-11.80577 h -47.22394 l -11.80626,11.80615 11.8055,11.80768 11.85469,0.0175 -11.80626,11.80692 -23.66097,-23.63174 23.61177,-23.61346 5.90409,5.90365 35.41729,3.8e-4 z"
       id="path12" />
    <path
       style="fill:#00ccfa;fill-opacity:1;stroke-width:0.195232"
       d="m 271.64608,194.00134 -6.36776,3.7e-4 9.56459,47.08122 21.94015,-21.94288 z"
       id="path11" />
    <path
       style="fill:#f9f9f9;fill-opacity:1;stroke-width:0.195232"
       d="m 411.8914,181.15798 -91.4962,20.27113 16.42347,16.42552 54.20977,-11.52702 0.003,13.40083 -26.36288,25.97538 14.75679,14.75797 32.46752,-32.07883 z"
       id="path10" />
    <path
       style="fill:#f9f9f9;fill-opacity:1;stroke-width:0.195232"
       d="m 282.4152,168.96059 -47.2224,7.4e-4 20.27003,91.5012 16.42461,-16.42437 -11.52639,-54.21273 13.4001,-0.003 25.97394,26.36431 14.75718,-14.7576 z"
       id="path4"
       inkscape:label="path4" />
    <g
       id="text5"
       style="font-weight:bold;font-size:114.653px;font-family:'.Al Bayan PUA';-inkscape-font-specification:'.Al Bayan PUA Bold';fill:#141414;stroke-width:0.264583"
       inkscape:label="text5"
       aria-label="XGigabyte">
      <path
         style="font-family:'FORCED SQUARE';-inkscape-font-specification:'FORCED SQUARE Bold';display:inline;fill:#00ccfa"
         d="m 104.24797,418.55405 21.09615,21.44011 v 8.48433 H 116.8598 L 95.419684,426.92372 74.323533,448.47849 h -8.484322 v -8.48433 L 86.935362,418.55405 65.839211,396.99929 v -8.48432 h 8.484322 l 21.096151,21.55476 21.440116,-21.55476 h 8.48432 v 8.48432 z"
         id="path9" />
      <path
         style="font-family:'FORCED SQUARE';-inkscape-font-specification:'FORCED SQUARE Bold';display:inline;fill:#f9f9f9"
         d="M 184.16105,436.21061 V 424.40136 H 165.93122 V 412.5921 h 30.03909 v 35.88639 h -59.96352 v -59.96352 h 59.96352 v 11.80926 h -47.69565 v 35.88638 z m 35.77171,-50.79127 v 9.28689 H 208.1235 v -9.28689 z m -11.80926,16.05142 h 11.80926 v 47.00773 H 208.1235 Z m 71.77267,66.61339 h -47.69565 v -11.80926 h 35.88639 v -7.7964 h -35.88639 v -47.69565 h 47.69565 z M 268.08691,436.66923 V 412.5921 h -24.07713 v 24.07713 z m 72.23147,-36.00105 v 47.69565 h -48.15426 v -28.66325 h 35.88638 v -7.7964 h -35.88638 v -11.236 z M 328.0505,437.7011 v 0 -8.25501 h -23.61851 v 8.25501 z m 71.88747,-37.37687 v 48.15426 h -47.69565 v -63.40311 h 11.80926 v 15.24885 z m -11.80926,12.26787 h -24.07713 v 23.61851 h 24.07713 z m 72.69002,35.88639 -19.94962,19.72031 h -9.28689 v -7.68175 l 12.49717,-12.03856 h -30.9563 v -47.69565 h 11.80925 v 35.88639 h 24.07713 v -35.88639 h 11.80926 z m 23.84781,-35.88639 v 24.07713 h 24.07713 v 11.80926 h -35.88639 v -63.28846 h 11.80926 v 15.59281 h 24.07713 v 11.80926 z m 36.23041,-11.92392 h 48.15426 v 28.66325 h -35.88639 v 7.79641 h 35.88639 v 11.23599 h -48.15426 z m 12.26787,18.91775 h 23.61852 v -8.25502 h -23.61852 z"
         id="path18" />
    </g>
  </g>
</svg>
