<?xml version="1.0" encoding="UTF-8" standalone="no"?>
<!-- Created with Inkscape (http://www.inkscape.org/) -->

<svg
   width="256.00494mm"
   height="256.00388mm"
   viewBox="0 0 256.00494 256.00388"
   version="1.1"
   id="svg1"
   inkscape:version="1.3.2 (091e20e, 2023-11-25)"
   sodipodi:docname="logo xg.svg"
   xmlns:inkscape="http://www.inkscape.org/namespaces/inkscape"
   xmlns:sodipodi="http://sodipodi.sourceforge.net/DTD/sodipodi-0.dtd"
   xmlns="http://www.w3.org/2000/svg"
   xmlns:svg="http://www.w3.org/2000/svg">
  <sodipodi:namedview
     id="namedview1"
     pagecolor="#ffffff"
     bordercolor="#000000"
     borderopacity="0.25"
     inkscape:showpageshadow="2"
     inkscape:pageopacity="0.0"
     inkscape:pagecheckerboard="0"
     inkscape:deskcolor="#d1d1d1"
     inkscape:document-units="mm"
     showgrid="false"
     showguides="true"
     inkscape:zoom="0.5"
     inkscape:cx="990"
     inkscape:cy="473"
     inkscape:window-width="1920"
     inkscape:window-height="976"
     inkscape:window-x="25"
     inkscape:window-y="25"
     inkscape:window-maximized="0"
     inkscape:current-layer="layer1"
     inkscape:lockguides="false">
    <inkscape:grid
       id="grid1"
       units="mm"
       originx="-31.998046"
       originy="-31.998657"
       spacingx="4"
       spacingy="4"
       empcolor="#c80000"
       empopacity="0.30196078"
       color="#0099e5"
       opacity="0.14901961"
       empspacing="4"
       dotted="false"
       gridanglex="30"
       gridanglez="30"
       visible="false" />
    <sodipodi:guide
       position="128.00045,191.99912"
       orientation="0,-1"
       id="guide2"
       inkscape:locked="false" />
    <sodipodi:guide
       position="128.00148,192.00015"
       orientation="1,0"
       id="guide3"
       inkscape:locked="false" />
    <inkscape:grid
       type="axonomgrid"
       id="grid8"
       units="mm"
       originx="-31.998046"
       originy="-15.998657"
       spacingx="0"
       spacingy="3.9999999"
       empcolor="#e50000"
       empopacity="0.30196078"
       color="#0099e5"
       opacity="0.14901961"
       empspacing="4"
       dotted="false"
       gridanglex="45"
       gridanglez="45"
       visible="false"
       snapvisiblegridlinesonly="true" />
  </sodipodi:namedview>
  <defs
     id="defs1" />
  <g
     inkscape:label="Layer 1"
     inkscape:groupmode="layer"
     id="layer1"
     transform="translate(-31.998047,-31.998657)">
    <path
       style="fill:#141414;stroke-width:0.264583;fill-opacity:1"
       d="M 159.99954,79.999251 79.999768,159.99902 160.00005,239.9993 240.00034,159.99902 224.00131,144 H 160.00057 L 144,159.99954 l 15.99954,16.0016 16.0662,0.0238 -16.00057,16.00058 -32.06678,-32.02544 32.00011,-32.00063 8.00158,8.00055 47.99949,6.2e-4 z"
       id="path4"
       sodipodi:nodetypes="ccccccccccccccc" />
    <path
       style="fill:#00ccfa;fill-opacity:1;stroke-width:0.264583"
       d="m 100.00061,188.00093 -34.067684,34.06717 5.17e-4,8.62996 63.803857,-12.96251 z"
       id="path19" />
    <path
       style="fill:#141414;stroke-width:0.264583;fill-opacity:1"
       d="m 76.000012,164.00033 -44.001965,43.47279 0.001,63.99868 124.001223,-27.47119 -22.25808,-22.25962 -73.468383,15.62127 -0.0026,-18.16065 35.728568,-35.20147 z"
       id="path8" />
    <path
       style="fill:#00ccfa;fill-opacity:1;stroke-width:0.264583"
       d="m 188.00058,219.99998 34.06717,34.06768 8.62996,-5.1e-4 -12.96251,-63.80386 z"
       id="path20" />
    <path
       style="fill:#141414;stroke-width:0.264583;fill-opacity:1"
       d="m 163.99998,244.00058 43.47279,44.00196 63.99868,-0.001 -27.47119,-124.00122 -22.25962,22.25808 15.62127,73.46838 -18.16065,0.003 -35.20147,-35.72857 z"
       id="use15" />
    <path
       style="fill:#00ccfa;fill-opacity:1;stroke-width:0.264583"
       d="m 220.00043,131.99941 34.06768,-34.06717 -5.1e-4,-8.62996 -63.80386,12.96251 z"
       id="path21" />
    <path
       style="fill:#141414;stroke-width:0.264583;fill-opacity:1"
       d="m 244.00103,156.00001 44.00196,-43.47279 -0.001,-63.99868 -124.00122,27.47119 22.25808,22.25962 73.46838,-15.62127 0.003,18.16065 -35.72857,35.20147 z"
       id="use16" />
    <path
       style="fill:#00ccfa;fill-opacity:1;stroke-width:0.264583"
       d="m 132.00018,100.00122 -34.06717,-34.067684 -8.62996,5.17e-4 12.96251,63.803857 z"
       id="path22" />
    <path
       style="fill:#141414;stroke-width:0.264583;fill-opacity:1"
       d="M 156.00078,76.000622 112.52799,31.998657 48.52931,31.999657 76.0005,156.00088 98.26012,133.7428 82.63885,60.274417 l 18.16065,-0.0026 35.20147,35.728568 z"
       id="use17" />
  </g>
</svg>
